<svg id="Layer_1" data-name="Layer 1" xmlns="http://www.w3.org/2000/svg" viewBox="0 0 312.92 345.49"><defs><style>.cls-1{fill:#48a1c6;}</style></defs><title>OkiDev</title><path class="cls-1" d="M229.29,57.68a211.89,211.89,0,0,1,35.37,19.45q8.41,5.76,16.33,12.35a202.22,202.22,0,0,1,15.1,14.12,184.2,184.2,0,0,1,25.52,33.28,174.91,174.91,0,0,1,9.8,19c2.87,6.56,5.59,13.29,7.08,20.36.38,1.76.74,3.53,1,5.32s.54,3.57.79,5.35.42,3.58.67,5.37l.56,5.38a168.62,168.62,0,0,1-6.44,64.08A191.65,191.65,0,0,1,318.31,301a202.55,202.55,0,0,1-24.54,34.76,165,165,0,0,1-32.44,28.5,137.63,137.63,0,0,1-39.9,18.24,127.73,127.73,0,0,1-44,4,141.42,141.42,0,0,1-42.49-10.41,168.59,168.59,0,0,1-19.41-9.53,133.06,133.06,0,0,1-18.19-12.54,132,132,0,0,1-34.63-160.4c1.65-3.32,3.35-6.5,5.34-9.76A108.3,108.3,0,0,1,196.4,138a107.62,107.62,0,0,1,10.48,4.32,100.8,100.8,0,0,1,10,5.44,87.92,87.92,0,0,1,25.49,23.74c1.18,1.55,2.19,3.22,3.27,4.84l1.49,2.51q.76,1.25,1.42,2.55a89.56,89.56,0,0,1,10.62,44.94,91.83,91.83,0,0,1-1.1,11.63,89.09,89.09,0,0,1-2.64,11.38c-.52,1.88-1.21,3.7-1.86,5.54s-1.43,3.62-2.23,5.4-1.63,3.53-2.58,5.23c-.47.86-.89,1.71-1.4,2.57l-1.56,2.59a74,74,0,0,1-37,30,73.83,73.83,0,0,1-47.57,1.28,70.35,70.35,0,0,1-21.78-11.08,61.55,61.55,0,0,1-16.42-19,66.67,66.67,0,0,1-7.63-24,52.43,52.43,0,0,1-.08-12.68,50.58,50.58,0,0,1,3.15-12.26,61.09,61.09,0,0,1,5.68-11.15,52.2,52.2,0,0,1,8.32-9.93A49.25,49.25,0,0,1,154.77,190a48.13,48.13,0,0,1,24.42.64,46,46,0,0,1,11,4.85,41.58,41.58,0,0,1,5,3.52,37.45,37.45,0,0,1,4.39,4.28,37,37,0,0,1,9.1,21.65,35.3,35.3,0,0,1-5.48,21.78,28.11,28.11,0,0,1-7.76,8,27.21,27.21,0,0,1-10,4.24A26.21,26.21,0,0,1,175,259a25.35,25.35,0,0,1-9.3-4,24.19,24.19,0,0,0,18.76.48,22.08,22.08,0,0,0,12.38-12.18A26.26,26.26,0,0,0,195,219a24.44,24.44,0,0,0-5.21-5.9,23.19,23.19,0,0,0-3.17-2.19,26.89,26.89,0,0,0-3.51-1.67,31.31,31.31,0,0,0-7.65-2,29.59,29.59,0,0,0-15,2,27.63,27.63,0,0,0-15.09,14.56,35.91,35.91,0,0,0-2.33,7.07,56.08,56.08,0,0,0-1,7.2,52.59,52.59,0,0,0-.14,7.22,32.35,32.35,0,0,0,4.13,13.85A35.27,35.27,0,0,0,155.48,270a44.52,44.52,0,0,0,13.6,6.84,47.82,47.82,0,0,0,15.4,2.13,48.52,48.52,0,0,0,15.3-3,47.65,47.65,0,0,0,23.85-19.32l1-1.68c.34-.57.65-1.21,1-1.81.68-1.2,1.23-2.46,1.83-3.7s1.07-2.53,1.57-3.81.95-2.58,1.3-3.91a62.84,62.84,0,0,0,1.86-8,65.62,65.62,0,0,0,.77-8.2,63.3,63.3,0,0,0-7.51-31.76q-.46-.92-1-1.8l-1-1.78c-.78-1.13-1.47-2.32-2.31-3.41a61.67,61.67,0,0,0-18-16.74,74.91,74.91,0,0,0-7.48-4.06A81.35,81.35,0,0,0,171,158.84a81.95,81.95,0,0,0-75.7,31.62,88.62,88.62,0,0,0-9.06,14.83A105.86,105.86,0,0,0,114,333.77a106.8,106.8,0,0,0,14.59,10.06,142.43,142.43,0,0,0,16.34,8,115.15,115.15,0,0,0,34.62,8.52,101.41,101.41,0,0,0,35-3.22,111.36,111.36,0,0,0,32.28-14.79,138.82,138.82,0,0,0,27.26-24,176.35,176.35,0,0,0,21.34-30.26,165.4,165.4,0,0,0,14.47-33.88,142.37,142.37,0,0,0,5.47-54.18c-.13-1.51-.33-3-.51-4.53s-.45-3-.74-4.5-.58-3-.93-4.46l-.49-2.22c-.17-.74-.37-1.47-.52-2.22-1.39-5.9-2.42-11.94-4.06-17.88a151.57,151.57,0,0,0-5.9-17.63,178.38,178.38,0,0,0-8-17.09,189.77,189.77,0,0,0-9.9-16.32C270,92,251,73.3,229.29,57.68Z" transform="translate(-49.12 -41.5)"/><path class="cls-1" d="M362,73.73c-4.92.6-9.78.89-14.62,1.08s-9.65.26-14.46.27c-9.59,0-19.12-.39-28.58-1s-18.87-1.47-28.22-2.46-18.66-2.19-27.67-3.25c-2.23-.27-4.46-.49-6.51-.68-1-.09-2-.16-2.7-.18-.32,0-.62,0-.39,0l.45-.07.48-.1c.25-.06.35-.09.85-.24l.61-.22.52-.22.64-.31a12.18,12.18,0,0,0,2.23-1.5l.48-.43.39-.38a10.61,10.61,0,0,0,.7-.8c.24-.31.37-.48.53-.72s.3-.46.43-.69a9.6,9.6,0,0,0,1.17-3.06,5,5,0,0,0,.11-.94c0-.25,0-.11,0,.11a19.62,19.62,0,0,0,.17,2.22c.24,1.82.61,3.93,1,6.05.86,4.28,1.87,8.76,2.92,13.25L255.71,93c2.09,9.15,4.11,18.42,5.86,27.82.86,4.71,1.71,9.43,2.42,14.21s1.38,9.59,1.77,14.52c-3.08-3.87-5.84-7.89-8.5-11.95s-5.17-8.19-7.61-12.36q-7.26-12.52-13.3-25.64a223.6,223.6,0,0,1-10.71-27.38c-.75-2.46-1.45-5-2-7.81a41.63,41.63,0,0,1-.74-4.82,25.6,25.6,0,0,1-.08-3.44,18.62,18.62,0,0,1,.33-2.7,15.24,15.24,0,0,1,1.75-4.73q.26-.45.55-.88c.2-.3.37-.54.66-.9s.55-.66.85-1l.46-.46.57-.5a13.6,13.6,0,0,1,2.6-1.75l.74-.36.62-.26.82-.29c.64-.21.88-.26,1.28-.36s.65-.14.91-.19c.59-.11.9-.14,1.33-.19a29.63,29.63,0,0,1,3.15-.17c1.68,0,3,.05,4.39.13,2.68.14,5.16.41,7.63.67,9.8,1.11,19.19,2.72,28.57,4.63S298.65,51,307.85,53.6,326.18,59,335.23,62.3c4.52,1.66,9,3.37,13.5,5.26S357.65,71.42,362,73.73Z" transform="translate(-49.12 -41.5)"/></svg>